HIERARCHY
ROOT Hips
{
  OFFSET 13.6774 106.653 -34.4427
  CHANNELS 6 Xposition Yposition Zposition Zrotation Xrotation Yrotation
  JOINT ToSpine
  {
    OFFSET -2.69724 7.43032 -0.144315
    CHANNELS 3 Zrotation Xrotation Yrotation
    JOINT Spine
    {
      OFFSET -0.0310711 10.7595 1.96963
      CHANNELS 3 Zrotation Xrotation Yrotation
      JOINT Spine1
      {
        OFFSET 19.9056 3.91189 0.764692
        CHANNELS 3 Zrotation Xrotation Yrotation
        JOINT Neck
        {
          OFFSET 25.9749 7.03908 -0.130764
          CHANNELS 3 Zrotation Xrotation Yrotation
          JOINT Head
          {
            OFFSET 9.52751 0.295786 -0.907742
            CHANNELS 3 Zrotation Xrotation Yrotation
            End Site
            {
              OFFSET 16.4037 0.713936 2.7358
            }
          }
        }
        JOINT LeftShoulder
        {
          OFFSET 17.7449 4.33886 11.7777
          CHANNELS 3 Zrotation Xrotation Yrotation
          JOINT LeftArm
          {
            OFFSET 0.911315 1.27913 9.80584
            CHANNELS 3 Zrotation Xrotation Yrotation
            JOINT LeftForeArm
            {
              OFFSET 28.6126 1.18197 -3.53199
              CHANNELS 3 Zrotation Xrotation Yrotation
              JOINT LeftHand
              {
                OFFSET 27.5088 0.0218783 0.327423
                CHANNELS 3 Zrotation Xrotation Yrotation
                End Site
                {
                  OFFSET 18.6038 -0.000155887 0.382096
                }
              }
            }
          }
        }
        JOINT RightShoulder
        {
          OFFSET 17.1009 2.89543 -12.2328
          CHANNELS 3 Zrotation Xrotation Yrotation
          JOINT RightArm
          {
            OFFSET 1.4228 0.178766 -10.211
            CHANNELS 3 Zrotation Xrotation Yrotation
            JOINT RightForeArm
            {
              OFFSET 28.733 1.87905 2.64907
              CHANNELS 3 Zrotation Xrotation Yrotation
              JOINT RightHand
              {
                OFFSET 27.4588 0.290562 -0.101845
                CHANNELS 3 Zrotation Xrotation Yrotation
                End Site
                {
                  OFFSET 17.8396 -0.255518 -0.000602873
                }
              }
            }
          }
        }
      }
    }
  }
  JOINT LeftUpLeg
  {
    OFFSET -5.61296 -2.22332 -10.2353
    CHANNELS 3 Zrotation Xrotation Yrotation
    JOINT LeftLeg
    {
      OFFSET 2.56703 -44.7417 -7.93097
      CHANNELS 3 Zrotation Xrotation Yrotation
      JOINT LeftFoot
      {
        OFFSET 3.16933 -46.5642 -3.96578
        CHANNELS 3 Zrotation Xrotation Yrotation
        JOINT LeftToeBase
        {
          OFFSET 0.346054 -6.02161 12.8035
          CHANNELS 3 Zrotation Xrotation Yrotation
          End Site
          {
            OFFSET 0.134235 -1.35082 5.13018
          }
        }
      }
    }
  }
  JOINT RightUpLeg
  {
    OFFSET -5.7928 -1.72406 10.6446
    CHANNELS 3 Zrotation Xrotation Yrotation
    JOINT RightLeg
    {
      OFFSET -2.57161 -44.7178 -7.85259
      CHANNELS 3 Zrotation Xrotation Yrotation
      JOINT RightFoot
      {
        OFFSET -3.10148 -46.5936 -4.03391
        CHANNELS 3 Zrotation Xrotation Yrotation
        JOINT RightToeBase
        {
          OFFSET -0.0828122 -6.13587 12.8035
          CHANNELS 3 Zrotation Xrotation Yrotation
          End Site
          {
            OFFSET -0.131328 -1.35082 5.13018
          }
        }
      }
    }
  }
}
MOTION
Frames: 8
Frame Time: 0.03333333333333333
0.0000 93.1000 0.0000 30.4515 -50.9795 -72.8090 -70.7854 -0.1150 87.7067 119.5754 70.5985 -33.8429 -4.1113 22.2195 3.2048 -166.7395 35.3352 -175.1917 -152.0212 75.0059 -177.0654 -0.3108 -12.3278 -31.9911 -69.7454 55.5387 -68.3105 15.3903 8.9813 -59.0869 0.2879 -0.1811 0.1707 -2.6957 5.2246 47.3748 -73.0174 -23.4778 80.0825 23.7630 -12.2426 65.0961 -0.5650 0.6458 0.3796 -46.7098 -0.0284 90.2519 -56.2648 83.2528 41.8165 -6.7040 2.7322 0.8393 2.7822 -11.1178 10.0364 -20.9253 1.2250 76.3484 0.7746 57.6107 -10.9031 -8.1704 -32.4940 0.7999 3.7403 3.2327 -23.5236 
0.0000 93.1000 0.0000 23.4471 -52.1235 -78.7416 -70.6974 0.4815 87.6032 126.6395 70.1100 -41.1973 -5.8457 23.9406 3.4227 -169.0781 35.1619 -174.9603 -149.0414 75.1209 -179.3597 -0.5287 -12.1647 -31.2736 -63.8293 57.7966 -69.9487 14.3737 11.6317 -53.4892 1.0046 -0.5395 1.3284 -1.6721 6.2000 43.7164 -77.1014 -24.7315 88.4846 28.4413 -12.1512 70.4680 -0.5508 2.4442 2.0536 -32.8172 1.2354 90.5732 -150.7666 79.5242 139.4735 -4.3159 4.0424 0.2683 3.2161 -10.0862 9.7568 -27.6085 3.5986 76.1821 0.7820 54.9228 -10.8488 -9.4891 -36.8448 0.5193 4.7026 2.5680 -20.2756 
0.0000 93.1000 0.0000 17.3992 -50.9326 -85.3816 -71.0748 0.0233 87.2358 131.7700 71.6527 -47.2102 -7.3873 26.3200 3.7017 -170.8824 35.6092 -175.9530 -147.3672 74.7498 177.3455 -0.0493 -11.9789 -29.9823 -58.1802 60.1362 -69.0729 16.6247 11.4564 -55.9221 0.0866 -0.2816 -0.0389 -2.3270 6.4362 40.0973 -78.7491 -28.2739 93.9802 30.7899 -7.5816 78.2090 -0.2395 0.2368 0.0713 -19.6271 0.8290 91.0718 -158.6297 76.0922 149.8694 -1.9786 3.1523 0.2051 3.2912 -9.8971 10.7305 -36.2208 3.3292 77.5767 1.5924 49.9108 -2.7092 -7.9505 -36.4170 1.0166 2.9355 -1.2820 -24.0120 
0.0000 93.1000 0.0000 13.5036 -51.8664 -92.0423 -71.1756 0.3003 87.6387 137.5236 73.1121 -54.6821 -9.8251 28.9883 3.7447 -169.1819 36.7448 -178.9838 -145.2581 76.3326 175.9022 -0.5135 -12.2456 -28.6259 -53.9806 61.7976 -66.2166 17.4841 10.2849 -60.1820 0.0124 -0.2053 0.3058 -1.7307 6.7087 37.6526 -79.1091 -32.7438 98.3834 33.9278 -4.3542 84.2973 -0.1761 1.0761 0.8103 -9.7465 1.0232 93.0937 -145.8021 80.9772 138.0319 -1.4355 1.2229 -0.3120 2.4027 -9.5600 10.2078 -47.2314 2.2405 78.5108 0.9336 41.1976 -1.2559 -7.0869 -26.5031 0.7735 3.4961 -13.5585 -11.8019 
0.0000 93.1000 0.0000 11.4428 -51.1683 -93.5504 -71.5273 0.2884 87.9517 137.5041 74.9966 -53.5961 -10.4628 30.2109 2.8844 -170.1850 37.2088 -178.0967 -147.3197 76.7906 176.6345 -0.3083 -12.3463 -26.0427 -54.6981 63.5212 -62.5539 17.2574 8.7185 -63.3284 -0.1547 0.2717 0.1252 -1.8128 6.9683 35.0063 -78.0869 -36.8426 100.9548 36.6398 -0.1488 89.5140 0.1053 0.6297 0.4461 -2.8210 -0.3085 94.0041 -35.8960 83.0290 28.0338 -2.4878 0.0815 -0.0632 1.9104 -8.9467 8.5634 -56.1216 -0.0788 79.6005 1.1784 33.9604 -1.4538 -6.0728 -9.5865 0.4896 2.5989 -24.0783 5.3297 
0.0000 93.1000 0.0000 11.4536 -49.6683 -94.2593 -71.4491 0.3214 87.7785 134.5079 76.1890 -49.9799 -9.5937 31.2912 0.5414 -172.2356 36.6985 -177.9789 -147.9881 76.9712 174.1947 -0.5088 -12.6886 -25.1445 -57.5352 64.7215 -57.3729 16.0879 7.2301 -65.1694 0.0207 0.2704 0.4416 -1.2423 7.5345 32.9506 -75.0292 -40.7140 99.9586 37.7603 3.2248 94.2552 -0.3665 1.0524 0.9850 -0.0586 -1.8790 94.9133 -8.9844 66.4742 -4.7247 -5.5182 1.1915 0.1068 3.2428 -11.0837 11.1858 -62.2863 -1.3839 79.7018 1.0559 31.0726 5.5767 -3.0334 8.7995 -0.8698 2.0687 -19.8266 7.6435 
0.0000 93.1000 0.0000 8.5782 -48.9002 -95.1499 -71.2457 0.1068 87.7696 131.4274 77.6964 -45.7760 -8.6787 31.4383 0.6059 -175.3055 36.9870 -175.7967 -150.2600 77.1192 174.7186 0.0685 -12.8751 -26.2115 -60.8594 64.7491 -55.5999 16.3654 6.8570 -67.3815 -0.5219 1.0022 -0.6451 -1.8890 8.2369 31.7800 -71.0466 -40.8822 100.7650 37.5878 4.3235 95.3008 0.7246 -1.6635 -1.0776 -0.9896 -1.9518 96.2182 -5.1492 49.1515 -14.8591 -7.3547 3.2626 0.6648 6.8083 -16.3717 14.5075 -67.3988 0.6454 83.4579 -0.6071 30.2009 16.6852 -1.2136 16.6818 -1.2283 2.7804 -15.0336 -21.3048 
0.0000 93.1000 0.0000 6.1719 -50.0323 -94.8753 -71.2350 0.6260 87.7431 128.3696 77.8690 -41.8784 -7.3106 30.9641 -0.4586 -173.2633 35.3550 180.0278 -148.1592 75.7900 172.8770 0.1998 -12.0530 -25.9669 -65.6722 63.7729 -53.4045 14.8671 5.3084 -70.3780 0.9177 0.3940 0.5674 -0.8226 7.6739 33.1058 -67.8937 -41.0012 99.6861 33.5989 1.6706 93.0672 -0.1823 0.9646 1.0571 -0.7733 0.1949 98.9167 -4.4797 43.1019 -16.0460 -9.8660 3.5869 0.8878 9.1544 -21.1552 15.9390 -68.1659 6.7356 92.1770 1.5532 41.0311 -4.6255 -5.4980 12.5667 -0.6956 2.8995 -9.8600 -5.8684 
